<?xml version="1.0" encoding="UTF-8" standalone="no"?>
<!-- Generator: Adobe Illustrator 22.0.0, SVG Export Plug-In . SVG Version: 6.00 Build 0)  -->

<svg
   xmlns:dc="http://purl.org/dc/elements/1.1/"
   xmlns:cc="http://creativecommons.org/ns#"
   xmlns:rdf="http://www.w3.org/1999/02/22-rdf-syntax-ns#"
   xmlns:svg="http://www.w3.org/2000/svg"
   xmlns="http://www.w3.org/2000/svg"
   xmlns:sodipodi="http://sodipodi.sourceforge.net/DTD/sodipodi-0.dtd"
   xmlns:inkscape="http://www.inkscape.org/namespaces/inkscape"
   version="1.1"
   id="Layer_1"
   x="0px"
   y="0px"
   viewBox="0 0 18 18"
   style="enable-background:new 0 0 18 18;"
   xml:space="preserve"
   sodipodi:docname="jfx.svg"
   inkscape:version="0.92.4 (5da689c313, 2019-01-14)"><metadata
   id="metadata4911"><rdf:RDF><cc:Work
       rdf:about=""><dc:format>image/svg+xml</dc:format><dc:type
         rdf:resource="http://purl.org/dc/dcmitype/StillImage" /><dc:title></dc:title></cc:Work></rdf:RDF></metadata><defs
   id="defs4909" /><sodipodi:namedview
   pagecolor="#ffffff"
   bordercolor="#666666"
   borderopacity="1"
   objecttolerance="10"
   gridtolerance="10"
   guidetolerance="10"
   inkscape:pageopacity="0"
   inkscape:pageshadow="2"
   inkscape:window-width="1920"
   inkscape:window-height="1057"
   id="namedview4907"
   showgrid="false"
   inkscape:zoom="13.111111"
   inkscape:cx="31.614407"
   inkscape:cy="9"
   inkscape:window-x="-8"
   inkscape:window-y="-8"
   inkscape:window-maximized="1"
   inkscape:current-layer="g4879" />
<style
   type="text/css"
   id="style4729">
	.st0{display:none;}
	.st1{display:inline;opacity:0.5;}
	.st2{fill:#6FCBDC;}
	.st3{display:inline;}
	.st4{opacity:0.5;fill:none;stroke:#A8A7A8;stroke-width:0.05;stroke-miterlimit:10;enable-background:new    ;}
	.st5{fill:none;stroke:#A8A7A8;stroke-width:0.05;stroke-miterlimit:10;}
	.st6{display:inline;opacity:0.5;fill:none;stroke:#6FCBDC;stroke-width:0.2;stroke-miterlimit:10;enable-background:new    ;}
	.st7{enable-background:new    ;}
	.st8{fill:#4C6A8D;}
</style>
<g
   id="Grid"
   class="st0">
	<g
   class="st1"
   id="g4733">
		<path
   class="st2"
   d="M18.8-0.8L18.8-0.8v19.6H-0.8V-0.8H18.8 M19-1H-1v20h20V-0.7V-1L19-1z"
   id="path4731" />
	</g>
	<g
   class="st3"
   id="g4829">
		<line
   class="st4"
   x1="-2"
   y1="-3"
   x2="-2"
   y2="21"
   id="line4735" />
		<line
   class="st4"
   x1="-1"
   y1="-3"
   x2="-1"
   y2="21"
   id="line4737" />
		<line
   class="st4"
   x1="0"
   y1="-3"
   x2="0"
   y2="21"
   id="line4739" />
		<line
   class="st4"
   x1="1"
   y1="-3"
   x2="1"
   y2="21"
   id="line4741" />
		<line
   class="st4"
   x1="2"
   y1="-3"
   x2="2"
   y2="21"
   id="line4743" />
		<line
   class="st4"
   x1="3"
   y1="-3"
   x2="3"
   y2="21"
   id="line4745" />
		<line
   class="st4"
   x1="4"
   y1="-3"
   x2="4"
   y2="21"
   id="line4747" />
		<line
   class="st4"
   x1="5"
   y1="-3"
   x2="5"
   y2="21"
   id="line4749" />
		<line
   class="st4"
   x1="6"
   y1="-3"
   x2="6"
   y2="21"
   id="line4751" />
		<line
   class="st4"
   x1="7"
   y1="-3"
   x2="7"
   y2="21"
   id="line4753" />
		<line
   class="st4"
   x1="8"
   y1="-3"
   x2="8"
   y2="21"
   id="line4755" />
		<line
   class="st4"
   x1="9"
   y1="-3"
   x2="9"
   y2="21"
   id="line4757" />
		<line
   class="st4"
   x1="10"
   y1="-3"
   x2="10"
   y2="21"
   id="line4759" />
		<line
   class="st4"
   x1="11"
   y1="-3"
   x2="11"
   y2="21"
   id="line4761" />
		<line
   class="st4"
   x1="12"
   y1="-3"
   x2="12"
   y2="21"
   id="line4763" />
		<line
   class="st4"
   x1="13"
   y1="-3"
   x2="13"
   y2="21"
   id="line4765" />
		<line
   class="st4"
   x1="14"
   y1="-3"
   x2="14"
   y2="21"
   id="line4767" />
		<line
   class="st4"
   x1="15"
   y1="-3"
   x2="15"
   y2="21"
   id="line4769" />
		<line
   class="st4"
   x1="16"
   y1="-3"
   x2="16"
   y2="21"
   id="line4771" />
		<line
   class="st4"
   x1="17"
   y1="-3"
   x2="17"
   y2="21"
   id="line4773" />
		<line
   class="st4"
   x1="18"
   y1="-3"
   x2="18"
   y2="21"
   id="line4775" />
		<line
   class="st4"
   x1="19"
   y1="-3"
   x2="19"
   y2="21"
   id="line4777" />
		<line
   class="st4"
   x1="20"
   y1="-3"
   x2="20"
   y2="21"
   id="line4779" />
		<line
   class="st4"
   x1="21"
   y1="-2"
   x2="-3"
   y2="-2"
   id="line4781" />
		<line
   class="st4"
   x1="21"
   y1="-1"
   x2="-3"
   y2="-1"
   id="line4783" />
		<line
   class="st4"
   x1="21"
   y1="0"
   x2="-3"
   y2="0"
   id="line4785" />
		<line
   class="st4"
   x1="21"
   y1="1"
   x2="-3"
   y2="1"
   id="line4787" />
		<line
   class="st4"
   x1="21"
   y1="2"
   x2="-3"
   y2="2"
   id="line4789" />
		<line
   class="st4"
   x1="21"
   y1="3"
   x2="-3"
   y2="3"
   id="line4791" />
		<line
   class="st4"
   x1="21"
   y1="4"
   x2="-3"
   y2="4"
   id="line4793" />
		<line
   class="st4"
   x1="21"
   y1="5"
   x2="-3"
   y2="5"
   id="line4795" />
		<line
   class="st4"
   x1="21"
   y1="6"
   x2="-3"
   y2="6"
   id="line4797" />
		<line
   class="st4"
   x1="21"
   y1="7"
   x2="-3"
   y2="7"
   id="line4799" />
		<line
   class="st4"
   x1="21"
   y1="8"
   x2="-3"
   y2="8"
   id="line4801" />
		<line
   class="st4"
   x1="21"
   y1="9"
   x2="-3"
   y2="9"
   id="line4803" />
		<line
   class="st4"
   x1="21"
   y1="10"
   x2="-3"
   y2="10"
   id="line4805" />
		<line
   class="st4"
   x1="21"
   y1="11"
   x2="-3"
   y2="11"
   id="line4807" />
		<line
   class="st4"
   x1="21"
   y1="12"
   x2="-3"
   y2="12"
   id="line4809" />
		<line
   class="st4"
   x1="21"
   y1="13"
   x2="-3"
   y2="13"
   id="line4811" />
		<line
   class="st4"
   x1="21"
   y1="14"
   x2="-3"
   y2="14"
   id="line4813" />
		<line
   class="st4"
   x1="21"
   y1="15"
   x2="-3"
   y2="15"
   id="line4815" />
		<line
   class="st4"
   x1="21"
   y1="16"
   x2="-3"
   y2="16"
   id="line4817" />
		<line
   class="st4"
   x1="21"
   y1="17"
   x2="-3"
   y2="17"
   id="line4819" />
		<line
   class="st4"
   x1="21"
   y1="18"
   x2="-3"
   y2="18"
   id="line4821" />
		<line
   class="st4"
   x1="21"
   y1="19"
   x2="-3"
   y2="19"
   id="line4823" />
		<line
   class="st4"
   x1="21"
   y1="20"
   x2="-3"
   y2="20"
   id="line4825" />
		<rect
   x="-3"
   y="-3"
   class="st5"
   width="24"
   height="24"
   id="rect4827" />
	</g>
	<line
   class="st6"
   x1="-3"
   y1="-3"
   x2="21"
   y2="21"
   id="line4831" />
	<line
   class="st6"
   x1="21"
   y1="-3"
   x2="-3"
   y2="21"
   id="line4833" />
	<line
   class="st6"
   x1="-3"
   y1="9"
   x2="21"
   y2="9"
   id="line4835" />
	<line
   class="st6"
   x1="-3"
   y1="3"
   x2="21"
   y2="3"
   id="line4837" />
	<line
   class="st6"
   x1="-3"
   y1="14"
   x2="21"
   y2="14"
   id="line4839" />
	<circle
   class="st6"
   cx="9"
   cy="9"
   r="10"
   id="circle4841" />
	<line
   class="st6"
   x1="15"
   y1="-3"
   x2="15"
   y2="21"
   id="line4843" />
	<line
   class="st6"
   x1="3"
   y1="-3"
   x2="3"
   y2="21"
   id="line4845" />
	<line
   class="st6"
   x1="9"
   y1="-3"
   x2="9"
   y2="21"
   id="line4847" />
</g>
<g
   id="Delay">
</g>
<g
   id="App_integration">
</g>
<g
   id="Active_directory">
</g>
<g
   id="Record">
</g>
<g
   id="Clipboard">
</g>
<g
   id="Comment">
</g>
<g
   id="Database">
</g>
<g
   id="Wait">
</g>
<g
   id="Web_service_-_soap">
</g>
<g
   id="Web_service_-_rest">
</g>
<g
   id="Service">
</g>
<g
   id="Keyboard">
</g>
<g
   id="SNMP">
</g>
<g
   id="OCR">
</g>
<g
   id="Launch_site">
</g>
<g
   id="xml">
</g>
<g
   id="OCR_1_">
</g>
<g
   id="g4879">
	
	
	
<text
   xml:space="preserve"
   style="font-style:normal;font-weight:normal;font-size:13.33333302px;line-height:1.25;font-family:sans-serif;letter-spacing:0px;word-spacing:0px;fill:#4c6a8d;fill-opacity:1;stroke:none;"
   x="1.2966101"
   y="11.669491"
   id="text4915"><tspan
     sodipodi:role="line"
     id="tspan4913"
     x="1.2966101"
     y="11.669491"
     style="font-style:normal;font-variant:normal;font-weight:bold;font-stretch:normal;font-size:8px;font-family:Verdana;-inkscape-font-specification:'Verdana Bold';fill:#4c6a8d;fill-opacity:1;">JFX</tspan></text>
</g>
<g
   id="window">
</g>
<g
   id="OPERATIONS">
</g>
<g
   id="VARIABLES">
</g>
<g
   id="Javascript">
</g>
<g
   id="JAva">
</g>
<g
   id="VBS">
</g>
<g
   id="Python">
</g>
<g
   id="Terminal">
</g>
<g
   id="Sound">
</g>
<g
   id="Screen_cap">
</g>
<g
   id="Print">
</g>
<g
   id="Prompt">
</g>
<g
   id="Read">
</g>
<g
   id="SAP_1_">
</g>
<g
   id="PGP">
</g>
<g
   id="System">
</g>
<g
   id="PDF">
</g>
<g
   id="command">
</g>
<g
   id="Message_box">
</g>
<g
   id="FTP">
</g>
<g
   id="Folder">
</g>
<g
   id="File">
</g>
<g
   id="Excel">
</g>
<g
   id="device">
</g>
<g
   id="email">
</g>
</svg>